<svg width="16" height="16" viewBox="0 0 16 16" fill="none" xmlns="http://www.w3.org/2000/svg">
<path fill-rule="evenodd" clip-rule="evenodd" d="M7.99984 0.666809C3.94975 0.666809 0.666504 3.95005 0.666504 8.00014C0.666504 12.0502 3.94975 15.3335 7.99984 15.3335C12.0499 15.3335 15.3332 12.0502 15.3332 8.00014C15.3332 3.95005 12.0499 0.666809 7.99984 0.666809ZM8.66652 3.92607C8.66652 3.55788 8.36804 3.25941 7.99985 3.25941C7.63166 3.25941 7.33319 3.55788 7.33319 3.92607V8.32607C7.33319 8.57859 7.47586 8.80943 7.70171 8.92236L10.635 10.389C10.9644 10.5537 11.3648 10.4202 11.5295 10.0909C11.6941 9.76157 11.5606 9.36112 11.2313 9.19646L8.66652 7.91405V3.92607Z" fill="#AAB1BB"/>
</svg>
