<svg width="20" height="20" viewBox="0 0 20 20" fill="none" xmlns="http://www.w3.org/2000/svg">
<path d="M8.87503 1.87425L2.70836 6.66656C2.26144 7.01387 2 7.54815 2 8.11416V18.0833C2 18.5896 2.41041 19 2.91667 19H6.41667C6.92293 19 7.33333 18.5896 7.33333 18.0833V13.6167C7.33333 13.1104 7.74374 12.7 8.25 12.7H11.75C12.2563 12.7 12.6667 13.1104 12.6667 13.6167V18.0833C12.6667 18.5896 13.0771 19 13.5833 19H17.0833C17.5896 19 18 18.5896 18 18.0833V8.11416C18 7.54815 17.7386 7.01387 17.2916 6.66656L11.125 1.87425C10.4632 1.35994 9.53683 1.35994 8.87503 1.87425Z" fill="#AAB1BB"/>
</svg>
