<svg width="20" height="20" viewBox="0 0 20 20" fill="none" xmlns="http://www.w3.org/2000/svg">
<path d="M2.25887 3.33331C1.79863 3.33331 1.42554 3.70641 1.42554 4.16665V14.3055C1.42554 14.7657 1.79863 15.1388 2.25887 15.1388H7.16675C7.81932 15.1388 8.44517 15.3876 8.9066 15.8304C9.36804 16.2732 9.62727 16.8737 9.62727 17.4999V6.48145C9.62727 5.64652 9.28163 4.84577 8.66638 4.25538C8.05113 3.66499 7.21667 3.33331 6.34658 3.33331H2.25887Z" fill="#AAB1BB"/>
<path d="M17.741 3.33333C18.2013 3.33333 18.5744 3.70643 18.5744 4.16667V14.3055C18.5744 14.7658 18.2013 15.1389 17.741 15.1389H12.8331C12.1806 15.1389 11.5547 15.3876 11.0933 15.8304C10.6319 16.2732 10.3726 16.8738 10.3726 17.5V6.48147C10.3726 5.64654 10.7183 4.84579 11.3335 4.2554C11.9488 3.66501 12.7832 3.33333 13.6533 3.33333H17.741Z" fill="#AAB1BB"/>
</svg>
