<svg width="20" height="16" viewBox="0 0 20 16" fill="none" xmlns="http://www.w3.org/2000/svg">
<path d="M8.33325 8C10.4043 8 12.0833 6.32107 12.0833 4.25C12.0833 2.17893 10.4043 0.5 8.33325 0.5C6.26218 0.5 4.58325 2.17893 4.58325 4.25C4.58325 6.32107 6.26218 8 8.33325 8Z" fill="#AAB1BB"/>
<path d="M15.8333 15.5V13.5556C15.8333 12.5242 15.4382 11.535 14.7349 10.8057C14.0316 10.0764 13.0778 9.66667 12.0833 9.66667H4.58325C3.58869 9.66667 2.63486 10.0764 1.9316 10.8057C1.22834 11.535 0.833252 12.5242 0.833252 13.5556V15.5H15.8333Z" fill="#AAB1BB"/>
<path d="M13.2388 1.50838C13.6023 1.22617 14.1258 1.29213 14.408 1.65569C14.9753 2.38653 15.2833 3.2854 15.2833 4.21057C15.2833 5.13575 14.9753 6.03462 14.408 6.76546C14.1258 7.12902 13.6023 7.19498 13.2388 6.91277C12.8752 6.63057 12.8093 6.10707 13.0915 5.74351C13.4318 5.305 13.6166 4.76568 13.6166 4.21057C13.6166 3.65547 13.4318 3.11615 13.0915 2.67764C12.8093 2.31408 12.8752 1.79058 13.2388 1.50838Z" fill="#AAB1BB"/>
<path d="M16.1796 9.28276C16.5018 8.95411 17.0294 8.94889 17.3581 9.27109C17.9171 9.8192 18.3613 10.5437 18.6657 11.2504C18.9674 11.951 19.1663 12.7142 19.1663 13.3632V14.7914C19.1663 15.2517 18.7932 15.6248 18.3329 15.6248C17.8727 15.6248 17.4996 15.2517 17.4996 14.7914V13.3632C17.4996 13.014 17.3813 12.4817 17.135 11.9098C16.8913 11.344 16.5563 10.8191 16.1913 10.4612C15.8626 10.139 15.8574 9.6114 16.1796 9.28276Z" fill="#AAB1BB"/>
</svg>
