<svg width="20" height="18" viewBox="0 0 20 18" fill="none" xmlns="http://www.w3.org/2000/svg">
<path fill-rule="evenodd" clip-rule="evenodd" d="M12.0516 1.07766C12.7089 0.80529 13.4135 0.6651 14.125 0.6651C14.8366 0.6651 15.5411 0.805291 16.1985 1.07766C16.8557 1.34998 17.4528 1.7491 17.9558 2.25223C18.4589 2.75519 18.8583 3.35261 19.1306 4.00983C19.403 4.66718 19.5432 5.37175 19.5432 6.08329C19.5432 6.79483 19.403 7.4994 19.1306 8.15674C18.8583 8.81403 18.4591 9.41122 17.9559 9.91421L10.5893 17.2809C10.2638 17.6063 9.7362 17.6063 9.41076 17.2809L2.0441 9.91421C1.02807 8.89819 0.457275 7.52016 0.457275 6.08329C0.457275 4.64641 1.02807 3.26839 2.0441 2.25237C3.06012 1.23634 4.43814 0.665546 5.87502 0.665546C7.31189 0.665546 8.68992 1.23634 9.70594 2.25237L10 2.54644L10.294 2.2525C10.7969 1.74932 11.3943 1.35001 12.0516 1.07766Z" fill="#AAB1BB"/>
</svg>
