<svg width="14" height="14" viewBox="0 0 14 14" fill="none" xmlns="http://www.w3.org/2000/svg">
<path fill-rule="evenodd" clip-rule="evenodd" d="M2.33325 0.333191C1.22868 0.333191 0.333252 1.22862 0.333252 2.33319V11.6665C0.333252 12.7711 1.22868 13.6665 2.33325 13.6665H11.6666C12.7712 13.6665 13.6666 12.7711 13.6666 11.6665V2.33319C13.6666 1.22862 12.7712 0.333191 11.6666 0.333191H2.33325ZM11.4357 5.8874C11.6497 5.64661 11.628 5.2779 11.3872 5.06387C11.1464 4.84983 10.7777 4.87152 10.5637 5.11231L8.33304 7.62179L6.10272 5.11234C5.99203 4.9878 5.83337 4.91654 5.66675 4.91652C5.50012 4.91651 5.34145 4.98775 5.23074 5.11228L2.56371 8.11228C2.34966 8.35306 2.37132 8.72177 2.6121 8.93582C2.85287 9.14987 3.22159 9.12821 3.43564 8.88743L5.66665 6.37789L7.89699 8.88737C8.00769 9.01192 8.16636 9.08319 8.33299 9.08319C8.49962 9.0832 8.65829 9.01194 8.769 8.8874L11.4357 5.8874Z" fill="#AAB1BB"/>
</svg>
